<svg width="46" height="46" viewBox="0 0 46 46" fill="none" xmlns="http://www.w3.org/2000/svg">
<path d="M23 9.58333C23.0023 8.81673 22.8512 8.05741 22.5557 7.35003C22.2602 6.64266 21.8263 6.00152 21.2794 5.46431C20.7324 4.92711 20.0836 4.50469 19.3711 4.2219C18.6585 3.93911 17.8966 3.80166 17.1302 3.81764C16.3638 3.83362 15.6082 4.00269 14.9081 4.31493C14.208 4.62716 13.5773 5.07625 13.0533 5.63577C12.5292 6.1953 12.1224 6.85397 11.8566 7.57304C11.5908 8.29211 11.4715 9.05707 11.5058 9.82292C10.3791 10.1126 9.33321 10.6548 8.44719 11.4086C7.56117 12.1624 6.85829 13.1078 6.39178 14.1735C5.92528 15.2391 5.70737 16.3969 5.75458 17.5592C5.80178 18.7215 6.11286 19.8578 6.66425 20.8821C5.69476 21.6697 4.9324 22.6823 4.44348 23.8317C3.95457 24.9811 3.7539 26.2326 3.85895 27.4773C3.96399 28.722 4.37157 29.9221 5.04621 30.9734C5.72086 32.0246 6.64214 32.8951 7.72992 33.5091C7.59559 34.5484 7.67575 35.6042 7.96545 36.6113C8.25515 37.6183 8.74823 38.5554 9.41425 39.3644C10.0803 40.1735 10.9051 40.8374 11.8378 41.3152C12.7704 41.793 13.7911 42.0745 14.8369 42.1424C15.8826 42.2103 16.9311 42.063 17.9177 41.7098C18.9043 41.3565 19.808 40.8047 20.573 40.0885C21.338 39.3723 21.9481 38.5069 22.3655 37.5457C22.7829 36.5845 22.9989 35.5479 23 34.5V9.58333Z" fill="#1E1E1E" stroke="#1E1E1E" stroke-linecap="round" stroke-linejoin="round"/>
<path d="M23 9.58333C22.9978 8.81673 23.1488 8.05741 23.4443 7.35003C23.7398 6.64266 24.1738 6.00152 24.7207 5.46431C25.2676 4.92711 25.9164 4.50469 26.6289 4.2219C27.3415 3.93911 28.1034 3.80166 28.8698 3.81764C29.6363 3.83362 30.3918 4.00269 31.0919 4.31493C31.7921 4.62716 32.4227 5.07625 32.9468 5.63577C33.4708 6.1953 33.8777 6.85397 34.1434 7.57304C34.4092 8.29211 34.5285 9.05707 34.4943 9.82292C35.6209 10.1126 36.6668 10.6548 37.5528 11.4086C38.4389 12.1624 39.1417 13.1078 39.6082 14.1735C40.0748 15.2391 40.2927 16.3969 40.2454 17.5592C40.1982 18.7215 39.8872 19.8578 39.3358 20.8821C40.3053 21.6697 41.0676 22.6823 41.5565 23.8317C42.0455 24.9811 42.2461 26.2326 42.1411 27.4773C42.036 28.722 41.6285 29.9221 40.9538 30.9734C40.2792 32.0246 39.3579 32.8951 38.2701 33.5091C38.4044 34.5484 38.3243 35.6042 38.0346 36.6113C37.7449 37.6183 37.2518 38.5554 36.5858 39.3644C35.9198 40.1735 35.0949 40.8374 34.1623 41.3152C33.2296 41.793 32.2089 42.0745 31.1632 42.1424C30.1174 42.2103 29.0689 42.063 28.0823 41.7098C27.0957 41.3565 26.192 40.8047 25.427 40.0885C24.662 39.3723 24.0519 38.5069 23.6345 37.5457C23.2171 36.5845 23.0011 35.5479 23 34.5V9.58333Z" fill="#1E1E1E" stroke="#1E1E1E" stroke-linecap="round" stroke-linejoin="round"/>
<path d="M28.75 24.9167C27.1409 24.3506 25.7357 23.3201 24.7122 21.9554C23.6887 20.5908 23.0929 18.9533 23 17.25C22.9071 18.9533 22.3113 20.5908 21.2878 21.9554C20.2643 23.3201 18.8591 24.3506 17.25 24.9167" stroke="#1E1E1E" stroke-linecap="round" stroke-linejoin="round"/>
<path d="M33.7314 12.4583C34.1953 11.6545 34.4577 10.7502 34.4962 9.82291" stroke="#1E1E1E" stroke-linecap="round" stroke-linejoin="round"/>
<path d="M11.5057 9.82291C11.5436 10.7501 11.8054 11.6543 12.2686 12.4583" stroke="#1E1E1E" stroke-linecap="round" stroke-linejoin="round"/>
<path d="M6.66425 20.884C7.01488 20.5984 7.39009 20.3444 7.7855 20.125" stroke="#1E1E1E" stroke-linecap="round" stroke-linejoin="round"/>
<path d="M38.2145 20.125C38.6099 20.3444 38.9851 20.5984 39.3357 20.884" stroke="#1E1E1E" stroke-linecap="round" stroke-linejoin="round"/>
<path d="M11.5 34.5C10.1791 34.5006 8.88043 34.1599 7.72992 33.511" stroke="#1E1E1E" stroke-linecap="round" stroke-linejoin="round"/>
<path d="M38.2701 33.511C37.1196 34.1599 35.8209 34.5006 34.5 34.5" stroke="#1E1E1E" stroke-linecap="round" stroke-linejoin="round"/>
</svg>
